<?xml version="1.0" encoding="UTF-8"?><svg xmlns="http://www.w3.org/2000/svg" xmlns:xlink="http://www.w3.org/1999/xlink" height="395.2" preserveAspectRatio="xMidYMid meet" version="1.0" viewBox="0.0 -0.0 488.4 395.2" width="488.4" zoomAndPan="magnify"><defs><clipPath id="a"><path d="M 0 187 L 482 187 L 482 395.210938 L 0 395.210938 Z M 0 187"/></clipPath><clipPath id="b"><path d="M 6 96 L 488.410156 96 L 488.410156 304 L 6 304 Z M 6 96"/></clipPath><clipPath id="c"><path d="M 6 0 L 488.410156 0 L 488.410156 208 L 6 208 Z M 6 0"/></clipPath></defs><g><g clip-path="url(#a)" id="change1_1"><path d="M 1.417969 251.550781 L 216.910156 187.925781 L 464.210938 233.082031 C 464.210938 233.082031 497.050781 270.015625 472.78125 316.707031 C 416.34375 338.257812 272.320312 395.210938 272.320312 395.210938 L 1.417969 342.875 C 1.417969 342.875 -4.738281 336.714844 8.601562 333.640625 C 8.601562 315.683594 8.601562 259.753906 8.601562 259.753906 C 8.601562 259.753906 -0.632812 257.707031 1.417969 251.550781" fill="#5d85bd"/></g><g id="change2_1"><path d="M 282.125 383.242188 C 307.285156 339.078125 281.011719 301.460938 281.011719 301.460938 C 281.011719 301.460938 322.113281 287.132812 343.027344 279.214844 L 347.296875 278.390625 C 369.621094 322.078125 352.703125 355.566406 352.703125 355.566406 L 282.125 383.242188" fill="#3f5983"/></g><g id="change3_1"><path d="M 6.820312 259.753906 L 6.820312 333.640625 L 270.191406 382.894531 C 270.191406 382.894531 297.042969 353.132812 270.191406 302.851562 C 158.648438 281.304688 6.820312 259.753906 6.820312 259.753906" fill="#f2f2f2"/></g><g id="change4_1"><path d="M 270.191406 382.894531 L 6.820312 333.640625 L 6.820312 259.753906 C 6.820312 259.753906 83.355469 270.617188 167.660156 284.628906 C 195.890625 295.75 216.085938 303.738281 216.085938 303.738281 L 245.121094 298.128906 C 253.640625 299.699219 262.027344 301.277344 270.191406 302.851562 C 279.148438 319.621094 282.128906 334.109375 282.125 345.96875 C 282.121094 369.671875 270.191406 382.894531 270.191406 382.894531" fill="#dad9d7"/></g><g clip-path="url(#b)" id="change5_1"><path d="M 486.988281 163.421875 L 271.496094 96.453125 L 24.195312 141.609375 C 24.195312 141.609375 -8.640625 178.546875 15.625 225.234375 C 72.066406 246.789062 216.085938 303.738281 216.085938 303.738281 L 486.988281 251.40625 C 486.988281 251.40625 493.148438 245.242188 479.804688 242.167969 C 479.804688 224.210938 479.804688 170.710938 479.804688 170.710938 C 479.804688 170.710938 489.042969 169.578125 486.988281 163.421875" fill="#ecb348"/></g><g id="change3_2"><path d="M 480.921875 242.167969 L 215.242188 295.035156 L 23.242188 219.988281 C 23.242188 219.988281 5.410156 186.925781 29.1875 150.515625 C 67.082031 165.375 218.589844 215.160156 218.589844 215.160156 L 480.921875 170.511719 L 480.921875 242.167969" fill="#f2f2f2"/></g><g id="change4_2"><path d="M 215.242188 295.035156 L 23.242188 219.988281 C 23.242188 219.988281 16.820312 208.082031 16.824219 190.691406 C 16.824219 181.144531 18.761719 169.949219 24.757812 158.160156 L 80.941406 169.015625 C 139.160156 189.0625 218.589844 215.160156 218.589844 215.160156 L 215.242188 295.035156" fill="#dad9d7"/></g><g clip-path="url(#c)" id="change6_1"><path d="M 8.105469 63.617188 L 223.597656 -0.00390625 L 470.898438 45.148438 C 470.898438 45.148438 503.738281 82.085938 479.46875 128.773438 C 423.03125 150.328125 279.007812 207.277344 279.007812 207.277344 L 8.105469 154.945312 C 8.105469 154.945312 1.949219 148.78125 15.289062 145.707031 C 15.289062 127.75 15.289062 71.824219 15.289062 71.824219 C 15.289062 71.824219 6.054688 69.773438 8.105469 63.617188" fill="#47ad96"/></g><g id="change7_1"><path d="M 327.230469 18.917969 L 223.597656 -0.00390625 L 327.230469 18.917969" fill="#fff"/></g><g id="change8_1"><path d="M 15.289062 71.824219 C 15.289062 71.824219 7.800781 70.160156 7.808594 65.335938 C 7.808594 64.800781 7.902344 64.230469 8.105469 63.617188 L 223.597656 -0.00390625 L 327.230469 18.917969 L 15.289062 71.824219" fill="#62bfa9"/></g><g id="change3_3"><path d="M 13.507812 71.824219 L 13.507812 145.707031 L 276.878906 194.960938 C 276.878906 194.960938 303.730469 165.203125 276.878906 114.921875 C 165.335938 93.375 13.507812 71.824219 13.507812 71.824219" fill="#f2f2f2"/></g><g id="change9_1"><path d="M 288.8125 194.960938 C 313.972656 150.796875 287.699219 113.179688 287.699219 113.179688 C 287.699219 113.179688 335.257812 96.453125 355.492188 90.882812 C 378.339844 134.898438 359.390625 168.285156 359.390625 168.285156 L 288.8125 194.960938" fill="#9edbc8"/></g></g></svg>