<?xml version="1.0" encoding="UTF-8" standalone="no"?><svg xmlns="http://www.w3.org/2000/svg" xmlns:xlink="http://www.w3.org/1999/xlink" fill="#000000" height="396.9" preserveAspectRatio="xMidYMid meet" version="1" viewBox="0.0 0.0 264.6 396.9" width="264.6" zoomAndPan="magnify"><defs><clipPath id="a"><path d="M 0 0 L 264.601562 0 L 264.601562 396.898438 L 0 396.898438 Z M 0 0"/></clipPath></defs><g><g clip-path="url(#a)" id="change1_1"><path d="M 132.300781 -0.00390625 C 59.355469 -0.00390625 0 59.335938 0 132.300781 C 0 202.484375 120.261719 385.441406 125.40625 393.179688 C 126.929688 395.480469 129.523438 396.898438 132.300781 396.898438 C 135.082031 396.898438 137.660156 395.480469 139.199219 393.179688 C 144.324219 385.441406 264.601562 202.484375 264.601562 132.300781 C 264.601562 59.335938 205.246094 -0.00390625 132.300781 -0.00390625" fill="#f2da2a"/></g><g id="change2_1"><path d="M 132.300781 190.179688 C 100.382812 190.179688 74.417969 164.214844 74.417969 132.300781 C 74.417969 100.378906 100.382812 74.417969 132.300781 74.417969 C 164.21875 74.417969 190.183594 100.378906 190.183594 132.300781 C 190.183594 164.214844 164.21875 190.179688 132.300781 190.179688" fill="#ff443a"/></g></g></svg>